<?xml version="1.0" encoding="UTF-8" standalone="no"?>
<svg width="128px" height="128px" viewBox="0 0 128 128" version="1.1" xmlns="http://www.w3.org/2000/svg" xmlns:xlink="http://www.w3.org/1999/xlink" xmlns:sketch="http://www.bohemiancoding.com/sketch/ns">
    <!-- Generator: Sketch 3.5.2 (25235) - http://www.bohemiancoding.com/sketch -->
    <title>Analytics</title>
    <desc>Created with Sketch.</desc>
    <defs></defs>
    <g id="Page-2" stroke="none" stroke-width="1" fill="none" fill-rule="evenodd" sketch:type="MSPage">
        <g id="Analytics" sketch:type="MSArtboardGroup">
            <g id="Group" sketch:type="MSLayerGroup" transform="translate(8.000000, 11.000000)">
                <path d="M70.8101142,81.8987557 C70.0276087,81.0754543 68.7702949,81.0810933 67.9983996,81.9100338 C67.2238518,82.7417938 67.229157,84.0810684 68.0090099,84.9015503 L88.1711255,106.126938 C88.561052,106.535769 89.0650386,106.738775 89.5716777,106.738775 C90.083622,106.738775 90.5982188,106.53013 90.9854927,106.11284 C91.7600405,105.28108 91.7547354,103.944625 90.9722299,103.124143 L70.8101142,81.8987557 L70.8101142,81.8987557 Z M41.8414962,81.8987557 L21.6714229,103.121324 C20.8915699,103.944625 20.8862648,105.28108 21.6581601,106.11284 C22.0480865,106.53013 22.5600308,106.738775 23.071975,106.738775 C23.5786142,106.738775 24.0826007,106.535769 24.4725272,106.126938 L44.639948,84.9043698 C45.4224535,84.0810684 45.4277586,82.7417938 44.6558634,81.9100338 C43.878663,81.0810933 42.6213491,81.0754543 41.8414962,81.8987557 L41.8414962,81.8987557 Z M110.646274,72.5971413 L101.821204,72.5971413 L101.821204,4.22928817 L110.646274,4.22928817 C111.744435,4.22928817 112.635695,3.28192762 112.635695,2.11464409 C112.635695,0.947360551 111.744435,0 110.646274,0 L1.9894207,0 C0.891260475,0 0,0.947360551 0,2.11464409 C0,3.28192762 0.891260475,4.22928817 1.9894207,4.22928817 L10.8251012,4.22928817 L10.8251012,72.5971413 L1.9894207,72.5971413 C0.891260475,72.5971413 0,73.5445018 0,74.7117853 C0,75.8790689 0.891260475,76.8264294 1.9894207,76.8264294 L110.646274,76.8264294 C111.744435,76.8264294 112.635695,75.8790689 112.635695,74.7117853 C112.635695,73.5445018 111.744435,72.5971413 110.646274,72.5971413 L110.646274,72.5971413 Z M14.8039426,4.22928817 L97.8423627,4.22928817 L97.8423627,72.5971413 L14.8039426,72.5971413 L14.8039426,4.22928817 Z" id="Fill-168" stroke="#00BCD4" sketch:type="MSShapeGroup"></path>
                <path d="M49.1920255,23.9909995 C48.6529058,23.9909995 48.2177128,24.4549664 48.2177128,25.02664 L48.2177128,62.9545556 C48.2177128,63.5262291 48.6529058,63.9901961 49.1920255,63.9901961 C49.728547,63.9901961 50.1663382,63.5262291 50.1663382,62.9545556 L50.1663382,25.02664 C50.1663382,24.4549664 49.728547,23.9909995 49.1920255,23.9909995 L49.1920255,23.9909995 Z M40.3231818,32.4597768 C39.7853612,32.4597768 39.34757,32.9237438 39.34757,33.4954173 L39.34757,62.9545556 C39.34757,63.5262291 39.7853612,63.9901961 40.3231818,63.9901961 C40.8610024,63.9901961 41.2974945,63.5262291 41.2974945,62.9545556 L41.2974945,33.4954173 C41.2974945,32.9237438 40.8610024,32.4597768 40.3231818,32.4597768 L40.3231818,32.4597768 Z M58.0608692,32.7953243 C57.5230486,32.7953243 57.0865565,33.2592913 57.0865565,33.8309648 L57.0865565,62.9545556 C57.0865565,63.5262291 57.5230486,63.9901961 58.0608692,63.9901961 C58.5986898,63.9901961 59.0351819,63.5262291 59.0351819,62.9545556 L59.0351819,33.8309648 C59.0351819,33.2592913 58.5986898,32.7953243 58.0608692,32.7953243 L58.0608692,32.7953243 Z M31.453039,39.7051175 C30.9152183,39.7051175 30.4787263,40.1690845 30.4787263,40.740758 L30.4787263,62.9545556 C30.4787263,63.5262291 30.9152183,63.9901961 31.453039,63.9901961 C31.9908596,63.9901961 32.4273517,63.5262291 32.4273517,62.9545556 L32.4273517,40.740758 C32.4273517,40.1690845 31.9908596,39.7051175 31.453039,39.7051175 L31.453039,39.7051175 Z M84.6674004,26.8410821 C84.1295798,26.8410821 83.6943868,27.305049 83.6943868,27.8767225 L83.6943868,62.9545556 C83.6943868,63.5262291 84.1295798,63.9901961 84.6674004,63.9901961 C85.205221,63.9901961 85.6430122,63.5262291 85.6430122,62.9545556 L85.6430122,27.8767225 C85.6430122,27.305049 85.205221,26.8410821 84.6674004,26.8410821 L84.6674004,26.8410821 Z M84.3686112,19.8083929 C84.9064318,19.8014886 85.3390266,19.3333791 85.3338303,18.7617056 L85.2610816,12.0383277 C85.2584834,11.75111 85.1415659,11.4777009 84.941507,11.2830005 C84.7414482,11.089681 84.4777342,10.9957829 84.2036276,11.0178766 L77.9004739,11.5854076 C77.3639524,11.6337374 76.9664328,12.1336066 77.0106017,12.7038993 C77.0560696,13.2741919 77.5354314,13.6843056 78.0641585,13.6497842 L81.895156,13.3045707 L66.9414047,30.8027521 L49.8285765,12.9828318 C49.4570385,12.5961927 48.8685537,12.5851458 48.4879222,12.9579764 L30.8268807,30.1275145 C30.4293611,30.5141536 30.4020803,31.1686784 30.7658237,31.5912197 C31.1295671,32.013761 31.7453328,32.0413781 32.1415533,31.6561198 L49.1231741,15.1480108 L66.3009565,33.0342121 C66.4828282,33.2247699 66.728355,33.3297148 66.9829754,33.3297148 L67.0115552,33.3297148 C67.2752692,33.3214297 67.5259923,33.1985337 67.7039668,32.9914056 L83.341036,14.6950907 L83.3839058,18.7851801 C83.3904012,19.3527111 83.8242951,19.8083929 84.3595176,19.8083929 L84.3686112,19.8083929 L84.3686112,19.8083929 Z M66.9297129,39.6650728 C66.3918923,39.6650728 65.9554002,40.1290397 65.9554002,40.7007132 L65.9554002,62.9545556 C65.9554002,63.5262291 66.3918923,63.9901961 66.9297129,63.9901961 C67.4675336,63.9901961 67.9040256,63.5262291 67.9040256,62.9545556 L67.9040256,40.7007132 C67.9040256,40.1290397 67.4675336,39.6650728 66.9297129,39.6650728 L66.9297129,39.6650728 Z M75.8011548,32.5205344 C75.2620351,32.5205344 74.8255431,32.9845013 74.8255431,33.5561749 L74.8255431,62.9545556 C74.8255431,63.5262291 75.2620351,63.9901961 75.8011548,63.9901961 C76.3389755,63.9901961 76.7741685,63.5262291 76.7741685,62.9545556 L76.7741685,33.5561749 C76.7741685,32.9845013 76.3389755,32.5205344 75.8011548,32.5205344 L75.8011548,32.5205344 Z" id="Fill-165" fill="#00BCD4" sketch:type="MSShapeGroup"></path>
            </g>
        </g>
    </g>
</svg>