<?xml version="1.0" encoding="UTF-8" standalone="no"?>
<svg width="205px" height="37px" viewBox="0 0 205 37" version="1.1" xmlns="http://www.w3.org/2000/svg" xmlns:xlink="http://www.w3.org/1999/xlink">
    <!-- Generator: Sketch 3.6.1 (26313) - http://www.bohemiancoding.com/sketch -->
    <title>append_1</title>
    <desc>Created with Sketch.</desc>
    <defs>
        <linearGradient x1="-192.133734%" y1="50.000369%" x2="208.248496%" y2="50.000369%" id="linearGradient-1">
            <stop stop-color="#FF00A6" offset="0%"></stop>
            <stop stop-color="#00B4EC" offset="54.3%"></stop>
            <stop stop-color="#FFFA00" offset="100%"></stop>
        </linearGradient>
        <linearGradient x1="-147.054957%" y1="50.000369%" x2="273.183656%" y2="50.000369%" id="linearGradient-2">
            <stop stop-color="#FF00A6" offset="0%"></stop>
            <stop stop-color="#00B4EC" offset="54.3%"></stop>
            <stop stop-color="#FFFA00" offset="100%"></stop>
        </linearGradient>
    </defs>
    <g id="Page-1" stroke="none" stroke-width="1" fill="none" fill-rule="evenodd">
        <g id="append_1">
            <g id="Group" transform="translate(5.945019, 0.000000)" fill="#29ABE2">
                <path d="M54.5822975,24.2387857 L45.0654035,24.2387857 L45.0654035,34.2166429 L38.7209877,34.2166429 L38.7209877,0.309357143 C44.0082711,0.309357143 49.2950141,0.260883929 54.582838,0.260883929 C71.0202742,0.260883929 71.0689153,24.2387857 54.5822975,24.2387857 L54.5822975,24.2387857 Z M45.0654035,18.3773393 L54.5822975,18.3773393 C62.7048144,18.3773393 62.6572543,6.36524107 54.5822975,6.36524107 L45.0654035,6.36524107 L45.0654035,18.3773393 L45.0654035,18.3773393 Z" id="Shape"></path>
                <path d="M87.0696629,24.2387857 L77.5533093,24.2387857 L77.5533093,34.2166429 L71.2099744,34.2166429 L71.2099744,0.309357143 C76.4956364,0.309357143 81.7829199,0.260883929 87.0702033,0.260883929 C103.50872,0.260883929 103.556821,24.2387857 87.0696629,24.2387857 L87.0696629,24.2387857 Z M77.5533093,18.3773393 L87.0696629,18.3773393 C95.1927202,18.3773393 95.1446196,6.36524107 87.0696629,6.36524107 L77.5533093,6.36524107 L77.5533093,18.3773393 L77.5533093,18.3773393 Z" id="Shape"></path>
                <path d="M128.787481,19.7601656 L109.897994,19.7601656 L109.897994,27.9194826 L128.78748,27.9194821 L128.78748,34.2171875 L103.601138,34.2171875 L103.601138,0.309901786 L128.78748,0.309901786 L128.78748,6.51011607 L109.897994,6.51011607 L109.897994,14.3083125 L128.787481,14.3083123" id="Shape"></path>
                <path d="M156.806353,0.260883929 L163.150769,0.260883929 L163.150769,34.2166429 L159.209222,34.2166429 L159.209222,34.2651161 L141.52117,11.3541696 L141.52117,34.2171875 L135.176754,34.2171875 L135.176754,0.309901786 L140.320276,0.309901786 L156.806353,21.3325714 L156.806353,0.260883929 L156.806353,0.260883929 Z" id="Shape"></path>
                <path d="M198.571191,16.9721607 C198.715493,25.5453839 193.52441,34.2166429 181.747869,34.2166429 L168.530471,34.2166429 L168.530471,0.309357143 L181.747869,0.309357143 C193.283907,0.309357143 198.426348,8.59283036 198.571191,16.9721607 L198.571191,16.9721607 Z M174.826786,28.0649018 L181.747869,28.0649018 C189.391001,28.0649018 192.418637,22.4458214 192.274335,16.9231429 C192.130033,11.6444643 189.054297,6.36524107 181.747869,6.36524107 L174.826786,6.36524107 L174.826786,28.0649018 L174.826786,28.0649018 Z" id="Shape"></path>
                <path d="M42.1439796,19.2550536 C40.9560568,19.3759643 39.7967781,19.4957857 38.6688459,19.6166964 C34.2997977,20.084 30.3966227,20.5572946 27.0252566,20.991375 L27.0252566,20.991375 L26.9976933,20.9957321 C22.9777798,21.5175 19.7118027,21.8551786 17.3597371,22.2157321 L17.3267693,22.1383929 L17.3192029,22.1383929 L17.3602776,22.1988482 C15.2687119,22.5190982 13.8921698,22.8132054 13.3209076,22.9117857 C13.1236411,22.9450089 13.0220353,23.0103661 13.0220353,23.0103661 L7.96120302,35.4903125 C8.20873198,35.3764821 8.13252765,35.0693036 7.80068752,35.5366071 C7.76988151,35.5801786 7.9071574,35.5159107 7.96120302,35.4924911 L9.31342454,34.9309643 C8.86052221,35.1259464 8.4049176,35.3214732 7.96066256,35.5208125 L12.2670179,33.7158661 C11.9216664,33.8520268 11.5860431,33.9936339 11.2460961,34.1297946 L12.2675584,33.7055179 L12.3226849,33.5829732 C12.3243063,33.5813393 12.3264681,33.5813393 12.3286299,33.5813393 L12.2670179,33.7180446 C13.6441004,33.1821161 15.0595553,32.6706964 16.5025735,32.1783393 C21.8801131,30.4725179 27.4360033,29.0123304 27.8283746,28.9088482 C32.0569042,27.8800179 36.4686486,26.9949732 41.0246947,26.2384643 C42.1645169,26.0505625 43.3119055,25.8670179 44.4695628,25.6954554 C108.443909,16.1162768 197.552173,30.5182679 197.552173,30.5182679 C144.947405,12.6730446 79.2695404,15.5215268 42.1439796,19.2550536 L42.1439796,19.2550536 Z" id="Shape" stroke="#FFFFFF"></path>
            </g>
            <g id="Group-2">
                <path d="M42.678538,34.8171847 L30.6514895,34.8171847 L14.8646275,0.258878049 L26.8942377,0.258878049 L42.678538,34.8171847 Z" id="Shape" fill="url(#linearGradient-1)"></path>
                <path d="M12.4211329,34.8171847 L0.39408448,34.8171847 L14.8646275,0.258878049 L26.8942377,0.258878049 L12.4211329,34.8171847 Z" id="Shape" fill="url(#linearGradient-2)"></path>
                <path d="M12.4211329,34.8171847 L14.8646275,0.258878049 L26.8942377,0.258878049 L12.4211329,34.8171847 Z" id="Shape" fill="#FFFFFF" opacity="0.1"></path>
                <path d="M42.678538,34.8171847 L14.8646275,0.258878049 L26.8942377,0.258878049 L42.678538,34.8171847 Z" id="Shape" fill="#FFFFFF" opacity="0.1"></path>
                <path d="M0.39408448,34.8171847 L26.8942377,0.258878049 L14.8646275,0.258878049 L0.39408448,34.8171847 Z" id="Shape" fill="#FFFFFF" opacity="0.1"></path>
            </g>
        </g>
    </g>
</svg>