<?xml version="1.0" encoding="UTF-8" standalone="no"?>
<svg width="128px" height="128px" viewBox="0 0 128 128" version="1.1" xmlns="http://www.w3.org/2000/svg" xmlns:xlink="http://www.w3.org/1999/xlink" xmlns:sketch="http://www.bohemiancoding.com/sketch/ns">
    <!-- Generator: Sketch 3.5.2 (25235) - http://www.bohemiancoding.com/sketch -->
    <title>Customization</title>
    <desc>Created with Sketch.</desc>
    <defs></defs>
    <g id="Page-2" stroke="none" stroke-width="1" fill="none" fill-rule="evenodd" sketch:type="MSPage">
        <g id="Customization" sketch:type="MSArtboardGroup" stroke="#00BCD4">
            <g sketch:type="MSLayerGroup" transform="translate(6.000000, 13.000000)">
                <path d="M41.2367647,48.5903714 C34.8430588,48.5903714 29.6445882,53.8069105 29.6445882,60.2166552 C29.6445882,66.628699 34.8430588,71.8452381 41.2367647,71.8452381 C47.6327647,71.8452381 52.8381176,66.628699 52.8381176,60.2166552 C52.8381176,53.8069105 47.6327647,48.5903714 41.2367647,48.5903714 L41.2367647,48.5903714 Z M41.2367647,68.3966667 C36.7425882,68.3966667 33.0857647,64.7273867 33.0857647,60.2166552 C33.0857647,55.7082229 36.7425882,52.0389429 41.2367647,52.0389429 C45.7355294,52.0389429 49.3969412,55.7082229 49.3969412,60.2166552 C49.3969412,64.7273867 45.7355294,68.3966667 41.2367647,68.3966667 L41.2367647,68.3966667 Z M78.4771765,53.105701 L73.0814118,53.105701 C72.5881765,53.105701 71.9435294,52.622901 71.7462353,51.9860648 L68.5505294,44.2313771 C68.3188235,43.8060533 68.4335294,43.0220781 68.7776471,42.677221 L72.5881765,38.8539048 C73.3406471,38.0998171 73.7581765,37.0951333 73.7581765,36.0260762 C73.7581765,34.957019 73.3452353,33.9500362 72.5904706,33.1959486 L68.1926471,28.772581 C66.6831176,27.2896952 64.0701176,27.2873962 62.5605882,28.7840762 L58.7431765,32.6188876 C58.5367059,32.828101 58.1329412,32.9660438 57.7475294,32.9660438 C57.5272941,32.9660438 57.3254118,32.9223619 57.0042353,32.7614286 L49.2753529,29.5818457 C48.8096471,29.4439029 48.3393529,28.8001695 48.3393529,28.3035752 L48.3393529,22.8893181 C48.3393529,20.6799333 46.5430588,18.8820781 44.3384118,18.8820781 L38.1328235,18.8820781 C35.9304706,18.8820781 34.1433529,20.6799333 34.1433529,22.8893181 L34.1433529,28.3035752 C34.1433529,28.7886743 33.6547059,29.4439029 33.0261176,29.6393219 L25.2857647,32.8464933 C24.8957647,33.0626038 24.063,32.9453524 23.7418235,32.6234857 L19.9129412,28.7863752 C18.4034118,27.2850971 15.7720588,27.2919943 14.2762941,28.7909733 L9.88305882,33.1890514 C9.12370588,33.9454381 8.70158824,34.95472 8.70158824,36.0260762 C8.70617647,37.0974324 9.12370588,38.1021162 9.87617647,38.8516057 L13.6981765,42.67952 C14.0422941,43.0243771 14.157,43.8037543 13.8381176,44.4084038 L10.6745294,52.1469981 C10.5345882,52.6137048 9.88076471,53.105701 9.40129412,53.105701 L3.98717647,53.105701 C1.78941176,53.105701 0,54.9012571 0,57.1083429 L0,63.3295657 C0,65.5366514 1.78941176,67.3322076 3.98717647,67.3322076 L9.40129412,67.3322076 C9.88994118,67.3322076 10.53,67.8127086 10.7318824,68.4449467 L13.923,76.2019333 C14.1547059,76.6272571 14.0422941,77.4089333 13.6981765,77.7537905 L9.88305882,81.5748076 C9.12370588,82.3311943 8.70158824,83.3404762 8.70158824,84.4164305 C8.70617647,85.4900857 9.12370588,86.4970686 9.87617647,87.239661 L14.2762941,91.6584305 C15.7904118,93.1482133 18.4034118,93.1413162 19.9175294,91.6400381 L23.7418235,87.8098248 C23.9437059,87.6052095 24.3382941,87.4672667 24.7191176,87.4672667 C24.9393529,87.4672667 25.1412353,87.5132476 25.4647059,87.678779 L33.1935882,90.8514648 C33.6547059,90.9894076 34.1433529,91.6446362 34.1433529,92.1274362 L34.1433529,97.5439924 C34.1433529,99.7510781 35.9304706,101.548933 38.1328235,101.548933 L44.3384118,101.548933 C46.5430588,101.548933 48.3393529,99.7510781 48.3393529,97.5439924 L48.3393529,92.1274362 C48.3393529,91.633141 48.8096471,90.9894076 49.4382353,90.7939886 L57.174,87.5960133 C57.5846471,87.3730057 58.422,87.4902571 58.7385882,87.8075257 L62.5605882,91.6469352 C64.0609412,93.1528114 66.6877059,93.1574095 68.2041176,91.6469352 L72.5835882,87.2465581 C73.3406471,86.4947695 73.7581765,85.4877867 73.7581765,84.4164305 C73.7581765,83.3427752 73.3452353,82.3334933 72.5881765,81.5794057 L68.7730588,77.7629867 C68.4289412,77.4135314 68.3188235,76.6272571 68.6354118,76.0249067 L71.8035882,68.2863124 C71.9435294,67.8127086 72.5881765,67.3322076 73.0814118,67.3322076 L78.4771765,67.3322076 C80.6864118,67.3322076 82.4804118,65.5366514 82.4804118,63.3295657 L82.4804118,57.1083429 C82.4804118,54.9012571 80.6864118,53.105701 78.4771765,53.105701 L78.4771765,53.105701 Z M79.0392353,63.3295657 C79.0392353,63.6284419 78.7845882,63.8836362 78.4771765,63.8836362 L73.0814118,63.8836362 C71.0511176,63.8836362 69.0850588,65.3504286 68.5642941,67.1367886 L65.5360588,74.5351238 C64.5771176,76.2824 64.9212353,78.7630724 66.3298235,80.19308 L70.1587059,84.0209943 C70.2963529,84.1589371 70.317,84.3244686 70.317,84.4118324 C70.317,84.4991962 70.2963529,84.6624286 70.1541176,84.8026705 L65.7746471,89.2053467 C65.4947647,89.4812324 65.2699412,89.4858305 64.9969412,89.2099448 L61.1680588,85.3636381 C60.3100588,84.5106914 59.0643529,84.0186952 57.7544118,84.0186952 C56.9514706,84.0186952 56.1806471,84.2118152 55.6965882,84.49 L48.3003529,87.5454343 C46.3893529,88.108701 44.8981765,90.1226667 44.8981765,92.1274362 L44.8981765,97.5439924 C44.8981765,97.8451676 44.6389412,98.102661 44.3384118,98.102661 L38.1328235,98.102661 C37.8345882,98.102661 37.5845294,97.8451676 37.5845294,97.5439924 L37.5845294,92.1274362 C37.5845294,90.1249657 36.0841765,88.111 34.3360588,87.6029105 L26.949,84.5750648 C26.2928824,84.2118152 25.5220588,84.0186952 24.7191176,84.0186952 C23.4068824,84.0186952 22.1634706,84.5106914 21.3054706,85.3682362 L17.4880588,89.1961505 C17.2104706,89.4789333 16.9672941,89.4720362 16.7011765,89.2099448 L12.3033529,84.7934743 C12.168,84.6601295 12.1473529,84.4991962 12.1427647,84.4118324 C12.1427647,84.3267676 12.168,84.1635352 12.3125294,84.0186952 L16.1368235,80.1884819 C17.5706471,78.746979 17.9147647,76.3145867 17.0154706,74.7144495 L13.9711765,67.2977219 C13.3999412,65.3826152 11.3902941,63.8836362 9.40129412,63.8836362 L3.98717647,63.8836362 C3.69352941,63.8836362 3.44117647,63.6284419 3.44117647,63.3295657 L3.44117647,57.1083429 C3.44117647,56.8094667 3.69352941,56.5542724 3.98717647,56.5542724 L9.40129412,56.5542724 C11.3902941,56.5542724 13.3999412,55.0529943 13.9138235,53.2942229 L16.9328824,45.8981867 C17.901,44.1463124 17.55,41.6587429 16.1276471,40.2402305 L12.3056471,36.4077181 C12.1748824,36.2766724 12.1473529,36.1249352 12.1427647,36.0260762 C12.1427647,35.9387124 12.168,35.77548 12.3125294,35.6352381 L16.7149412,31.2302629 C16.9764706,30.9589752 17.2104706,30.9520781 17.4834706,31.2302629 L21.3123529,35.0650743 C22.1657647,35.9249181 23.4114706,36.4146152 24.726,36.4146152 C25.5266471,36.4146152 26.2974706,36.2237943 26.7723529,35.9479086 L34.1708824,32.8878762 C36.0864706,32.3200114 37.5845294,30.3060457 37.5845294,28.3035752 L37.5845294,22.8893181 C37.5845294,22.5812457 37.8277059,22.3306495 38.1328235,22.3306495 L44.3384118,22.3306495 C44.6389412,22.3306495 44.8981765,22.5858438 44.8981765,22.8893181 L44.8981765,28.3035752 C44.8981765,30.3083448 46.3893529,32.3223105 48.1328824,32.828101 L55.5222353,35.8651429 C57.2497059,36.8123505 59.7732353,36.4514 61.1749412,35.0627752 L64.9877647,31.2279638 C65.2722353,30.949779 65.5177059,30.9704705 65.7654706,31.2210667 L70.1541176,35.6352381 C70.2963529,35.773181 70.317,35.9364133 70.317,36.0260762 C70.317,36.1088419 70.2963529,36.2720743 70.1541176,36.4123162 L66.3458824,40.2379314 C64.9258235,41.6541448 64.5725294,44.1394152 65.4557647,45.7165619 L68.5069412,53.1332895 C69.0850588,55.085181 71.0511176,56.5542724 73.0814118,56.5542724 L78.4771765,56.5542724 C78.7845882,56.5542724 79.0392353,56.8094667 79.0392353,57.1083429 L79.0392353,63.3295657 L79.0392353,63.3295657 Z" id="Fill-186" sketch:type="MSShapeGroup"></path>
                <path d="M115.020816,18.2068804 L112.145457,18.2068804 C111.817988,18.2068804 111.419688,17.9105994 111.300608,17.5207018 L109.608858,13.4098026 C109.456929,13.1310104 109.525707,12.6361799 109.751548,12.4108829 L111.778979,10.3770371 C112.155722,10.0035996 112.362058,9.50465411 112.362058,8.97484603 C112.362058,8.44298044 112.155722,7.94506372 111.782059,7.57265493 L109.44461,5.22195305 C108.700363,4.48433675 107.40178,4.48125049 106.649321,5.22606807 L104.620863,7.26608637 C104.401182,7.48418212 104.017253,7.62100635 103.536829,7.37307674 L99.4378246,5.68694966 C99.1288338,5.59539059 98.8383208,5.19726297 98.8383208,4.86806183 L98.8383208,1.98549436 C98.8383208,0.89090058 97.9472776,0 96.8529779,0 L93.5536541,0 C92.4634606,0 91.5765235,0.89090058 91.5765235,1.98549436 L91.5765235,4.86806183 C91.5765235,5.18903294 91.273692,5.59539059 90.8907897,5.7126685 L86.7907589,7.41011187 C86.5228299,7.55825238 86.0095562,7.48418212 85.7919281,7.26814388 L83.7573109,5.22709682 C83.0110108,4.48433675 81.708322,4.48433675 80.9620219,5.22915433 L78.6245731,7.57059742 C78.2488567,7.94506372 78.0425207,8.44298044 78.0425207,8.97484603 C78.0425207,9.50465411 78.2488567,10.0035996 78.62252,10.3749796 L80.6550842,12.4129404 C80.8809246,12.6372087 80.952783,13.1320391 80.7638982,13.4879879 L79.0834399,17.5947721 C78.9900241,17.9033981 78.5865909,18.2068804 78.2673346,18.2068804 L75.3878687,18.2068804 C74.2976752,18.2068804 73.4117647,19.097781 73.4117647,20.1913461 L73.4117647,23.5008462 C73.4117647,24.5933825 74.2976752,25.4842831 75.3878687,25.4842831 L78.2673346,25.4842831 C78.5865909,25.4842831 78.9900241,25.7867366 79.1091036,26.1673755 L80.7998274,30.2762172 C80.9558626,30.5611819 80.8860574,31.0477823 80.6550842,31.2771944 L78.6245731,33.3110402 C78.2488567,33.6855065 78.0425207,34.1854807 78.0425207,34.718375 C78.0425207,35.2512694 78.2509098,35.7491861 78.62252,36.1185086 L80.964075,38.4692105 C81.7155078,39.2047693 83.0130639,39.2037405 83.759364,38.4599517 L85.7919281,36.4209622 C86.0064765,36.2059527 86.3893788,36.0701572 86.8687765,36.3191156 L90.9647012,38.0031851 C91.273692,38.0937154 91.5765235,38.4990443 91.5765235,38.8210442 L91.5765235,41.7025829 C91.5765235,42.7982055 92.4634606,43.6880773 93.5536541,43.6880773 L96.8529779,43.6880773 C97.9472776,43.6880773 98.8383208,42.7982055 98.8383208,41.7025829 L98.8383208,38.8210442 C98.8383208,38.4918431 99.1288338,38.0937154 99.5137891,37.9764375 L103.6169,36.2820804 C103.882775,36.1339399 104.404262,36.2069814 104.61881,36.4209622 L106.649321,38.463038 C107.393568,39.2088843 108.702416,39.2099131 109.448716,38.463038 L111.778979,36.1215949 C112.153669,35.7491861 112.362058,35.2512694 112.362058,34.718375 C112.362058,34.1854807 112.155722,33.6855065 111.781032,33.3130977 L109.749495,31.2802806 C109.525707,31.0549836 109.456929,30.5570669 109.64684,30.1990607 L111.327298,26.0922765 C111.419688,25.7805641 111.817988,25.4842831 112.145457,25.4842831 L115.020816,25.4842831 C116.11101,25.4842831 117,24.5933825 117,23.5008462 L117,20.1913461 C117,19.097781 116.11101,18.2068804 115.020816,18.2068804 L115.020816,18.2068804 Z M115.256471,23.5945887 C115.256471,23.831036 115.055253,24.0326814 114.820328,24.0326814 L111.959355,24.0326814 C110.961437,24.0326814 109.958411,24.7819427 109.703058,25.6632459 L108.093314,29.5978912 C107.616315,30.4699822 107.786891,31.7074916 108.489622,32.4188804 L110.51508,34.4445472 C110.626414,34.5550939 110.642756,34.6861123 110.642756,34.7546922 C110.642756,34.8232722 110.625392,34.9532669 110.513037,35.0648373 L108.19137,37.3955312 C107.972788,37.6145775 107.794041,37.6135539 107.57648,37.3965548 L105.553065,35.3637229 C105.127136,34.9368896 104.504075,34.6922538 103.846286,34.6922538 C103.444872,34.6922538 103.0598,34.7864232 102.812618,34.9276774 L98.8822282,36.5510769 C97.9312944,36.8335852 97.1866857,37.8377182 97.1866857,38.8377568 L97.1866857,41.7048071 C97.1866857,41.9443251 96.9834248,42.1449469 96.7433932,42.1449469 L93.4605777,42.1449469 C93.2205461,42.1449469 93.0254566,41.9484194 93.0254566,41.7048071 L93.0254566,38.8377568 C93.0254566,37.8387417 92.2757408,36.8335852 91.3922201,36.57769 L87.4689798,34.9655499 C87.1441711,34.7864232 86.7590991,34.6922538 86.3587059,34.6922538 C85.7029599,34.6922538 85.081942,34.9368896 84.6560135,35.3647465 L82.6346408,37.3904133 C82.4681508,37.5552098 82.1668345,37.5490683 82.01158,37.3965548 L79.6848054,35.0617665 C79.5755144,34.9532669 79.5591718,34.8232722 79.5591718,34.7546922 C79.5591718,34.6861123 79.5755144,34.5550939 79.6878696,34.4445472 L81.7112851,32.4188804 C82.414016,31.7136331 82.5917415,30.4751001 82.1504919,29.6746598 L80.5305338,25.7359202 C80.2455601,24.7809191 79.2445771,24.0326814 78.2507441,24.0326814 L75.3856858,24.0326814 C75.1507612,24.0326814 74.951586,23.831036 74.951586,23.5945887 L74.951586,20.3017287 C74.951586,20.0642579 75.1507612,19.8626125 75.3856858,19.8626125 L78.2507441,19.8626125 C79.2445771,19.8626125 80.2455601,19.1133512 80.5049985,18.2289772 L82.1126997,14.2943319 C82.5937844,13.4191702 82.4160588,12.1796136 81.7082209,11.4743663 L79.6848054,9.44767595 C79.6030925,9.36681305 79.5591718,9.25728988 79.5591718,9.14060165 C79.5591718,9.02391342 79.6030925,8.91439025 79.6878696,8.83148019 L82.0146442,6.50180987 C82.1790914,6.33906049 82.4722364,6.34110765 82.6315766,6.50078629 L84.6560135,8.52850022 C85.0839848,8.95738065 85.7060242,9.20304009 86.363813,9.20304009 C86.7621633,9.20304009 87.1451925,9.10887064 87.3913526,8.96761646 L91.3176571,7.34216986 C92.2757408,7.05966151 93.0254566,6.05450498 93.0254566,5.05548994 L93.0254566,2.18741601 C93.0254566,1.9458509 93.2205461,1.74727619 93.4605777,1.74727619 L96.7433932,1.74727619 C96.9834248,1.74727619 97.1866857,1.94892164 97.1866857,2.18741601 L97.1866857,5.05548994 C97.1866857,6.05655214 97.9312944,7.06170867 98.8076652,7.31555675 L102.734991,8.93076755 C103.590934,9.4016148 104.861569,9.21941739 105.555107,8.52747664 L107.572394,6.49976271 C107.734799,6.33701333 108.034072,6.34110765 108.19137,6.49566838 L110.51508,8.83250377 C110.596793,8.91439025 110.642756,9.02391342 110.642756,9.14060165 C110.642756,9.25728988 110.596793,9.36681305 110.514059,9.44972311 L108.49575,11.4743663 C107.789955,12.1796136 107.612229,13.4191702 108.057565,14.2165398 L109.676501,18.1542558 C109.957389,19.1123276 110.961437,19.8626125 111.959355,19.8626125 L114.820328,19.8626125 C115.055253,19.8626125 115.256471,20.0642579 115.256471,20.3017287 L115.256471,23.5945887 L115.256471,23.5945887 Z M95.2053691,15.8037121 C91.8824347,15.8037121 89.1785084,18.513449 89.1785084,21.844553 C89.1785084,25.175657 91.8824347,27.8843651 95.2053691,27.8843651 C98.5272769,27.8843651 101.230177,25.175657 101.230177,21.844553 C101.230177,18.513449 98.5272769,15.8037121 95.2053691,15.8037121 L95.2053691,15.8037121 Z M95.2053691,26.3412348 C92.7313895,26.3412348 90.7183298,24.3248778 90.7183298,21.844553 C90.7183298,19.3642282 92.7313895,17.3468425 95.2053691,17.3468425 C97.6772956,17.3468425 99.6903553,19.3642282 99.6903553,21.844553 C99.6903553,24.3248778 97.6772956,26.3412348 95.2053691,26.3412348 L95.2053691,26.3412348 Z" id="Fill-185" fill="#00BCD4" sketch:type="MSShapeGroup"></path>
            </g>
        </g>
    </g>
</svg>