<?xml version="1.0" encoding="UTF-8" standalone="no"?>
<svg width="128px" height="128px" viewBox="0 0 128 128" version="1.1" xmlns="http://www.w3.org/2000/svg" xmlns:xlink="http://www.w3.org/1999/xlink" xmlns:sketch="http://www.bohemiancoding.com/sketch/ns">
    <!-- Generator: Sketch 3.5.2 (25235) - http://www.bohemiancoding.com/sketch -->
    <title>Engagement</title>
    <desc>Created with Sketch.</desc>
    <defs></defs>
    <g id="Page-2" stroke="none" stroke-width="1" fill="none" fill-rule="evenodd" sketch:type="MSPage">
        <g id="Engagement" sketch:type="MSArtboardGroup" stroke="#00BCD4">
            <g id="Group" sketch:type="MSLayerGroup" transform="translate(10.000000, 11.000000)">
                <path d="M99.9361665,84.8346558 C95.4980119,77.9766028 86.2938991,78.8245772 86.1095095,78.8605083 L78.9925842,78.8605083 C78.6673415,78.8557175 71.1995638,78.6760619 66.8279943,84.5663701 C66.1570211,85.4622527 65.4271457,86.9450102 64.5948317,89.1008774 C64.5564172,89.1942983 64.5666611,89.2901146 64.5461733,89.3859309 C62.4769126,83.1938013 60.0311898,77.0136488 57.9388803,74.4553531 C51.6593909,64.6892748 38.5165119,65.9181191 38.1707815,65.9636318 L27.5632591,65.9636318 C27.1022852,65.9516548 16.4947628,65.6929507 10.2716147,74.0625062 C6.84504178,78.6736665 1.81274301,96.279915 0.0482372388,103.605073 C-0.18737166,104.572817 0.463113778,105.533376 1.49774416,105.751358 C2.52981358,105.966945 3.56188299,105.363302 3.79493093,104.395557 C5.64394859,96.7278563 10.5277113,80.0126996 13.4241642,76.1129754 C18.4308533,69.3842744 27.3532599,69.5591392 27.496674,69.5567438 L38.3756588,69.5471622 C38.4857803,69.5327897 49.7181785,68.5267184 54.696697,76.3836565 C54.7402334,76.4555187 54.7888917,76.5225901 54.842672,76.5848708 C57.9388803,80.2450541 63.0941054,96.6368308 64.9892205,104.400348 C65.1915368,105.231555 65.9854364,105.796871 66.8612869,105.796871 C66.999579,105.796871 67.1455541,105.782498 67.2889682,105.751358 C68.3235986,105.528585 68.9715231,104.568027 68.7333532,103.600282 C68.0905507,100.967728 66.7409214,96.1026549 65.0916591,91.0267854 C65.2760487,91.1848823 65.4937309,91.3166297 65.7472665,91.400469 C66.7486043,91.7334307 67.8446979,91.2567445 68.2057942,90.3225354 C69.132864,87.9271275 69.7142033,86.9737551 69.9779828,86.6192347 C73.1407762,82.3649902 78.628927,82.4536203 78.92856,82.4536203 L86.3118258,82.446434 C86.6140199,82.4105029 93.5542385,81.8116509 96.6939832,86.7629592 C96.7375196,86.832426 96.783617,86.8994975 96.8399583,86.9617781 C98.6889759,89.1511809 102.100183,99.5376699 103.547129,105.447141 C103.749445,106.280743 104.540784,106.843664 105.414073,106.843664 C105.557488,106.843664 105.703463,106.829292 105.844316,106.800547 C106.878946,106.577774 107.526871,105.61482 107.291262,104.647075 C106.27968,100.514996 102.686644,88.2457167 99.9361665,84.8346558 L99.9361665,84.8346558 Z M33.0642147,63.0867469 C46.3453859,63.0867469 57.1501027,52.9829161 57.1501027,40.5627258 C57.1501027,28.1473263 46.3453859,18.0458909 33.0642147,18.0458909 C19.7932874,18.0458909 8.9936925,28.1473263 8.9936925,40.5627258 C8.9936925,52.9829161 19.7932874,63.0867469 33.0642147,63.0867469 L33.0642147,63.0867469 Z M33.0642147,21.6390028 C44.2274668,21.6390028 53.3086532,30.1283287 53.3086532,40.5627258 C53.3086532,51.0019137 44.2274668,59.4936349 33.0642147,59.4936349 C21.9086455,59.4936349 12.8351419,51.0019137 12.8351419,40.5627258 C12.8351419,30.1283287 21.9086455,21.6390028 33.0642147,21.6390028 L33.0642147,21.6390028 Z M65.8471442,62.3609383 C65.8471442,71.0418967 73.3968728,78.1035594 82.6752537,78.1035594 C91.9561956,78.1035594 99.5110461,71.0418967 99.5110461,62.3609383 C99.5110461,53.6799798 91.9561956,46.6183171 82.6752537,46.6183171 C73.3968728,46.6183171 65.8471442,53.6799798 65.8471442,62.3609383 L65.8471442,62.3609383 Z M95.6695967,62.3609383 C95.6695967,69.0608943 89.8408374,74.5104475 82.6752537,74.5104475 C75.5173529,74.5104475 69.6885936,69.0608943 69.6885936,62.3609383 C69.6885936,55.6609822 75.5173529,50.2114291 82.6752537,50.2114291 C89.8408374,50.2114291 95.6695967,55.6609822 95.6695967,62.3609383 L95.6695967,62.3609383 Z" id="Fill-88" fill="#FFFFFF" sketch:type="MSShapeGroup"></path>
                <path d="M86.4036582,0 C73.9496094,0 63.8172048,6.97797215 63.8172048,15.5546315 C63.8172048,20.3532815 66.8453963,24.7697305 72.1205189,27.6685914 C72.2155246,27.7350236 72.4507329,28.175892 72.3612615,29.0050007 C72.2745573,29.8082267 71.6381113,32.58889 67.0981299,34.5999747 C66.8232591,34.7216233 66.6655311,34.9959798 66.7088833,35.2763755 C66.7522354,35.5576341 66.9855989,35.7793624 67.2862966,35.823363 C67.3167353,35.8285395 68.0684795,35.9372468 69.2638911,35.9372468 C72.3621839,35.9372468 78.1252485,35.2194336 82.3396278,30.4777256 C82.6735313,30.5303537 83.010202,30.5916094 83.3487175,30.6545906 C84.331058,30.8340439 85.3456821,31.0203992 86.4036582,31.0203992 C98.3909801,31.0203992 106.763473,24.6601605 106.763473,15.5546315 C106.763473,6.39647447 98.3909801,0 86.4036582,0 L86.4036582,0 Z M86.4036582,29.7262649 C85.4803504,29.7262649 84.5321381,29.5519881 83.6152869,29.3837507 C83.1218107,29.294024 82.6338687,29.2042974 82.1514611,29.1404534 C81.9051842,29.1050804 81.6635192,29.1982581 81.5104032,29.3785742 C77.8679029,33.6871786 72.8178424,34.5482093 69.8080985,34.6353477 C73.2901037,32.3783775 73.7180906,29.7210884 73.7595979,28.8600577 C73.8121739,27.7669456 73.4635122,26.9059149 72.8261438,26.5556359 C67.9808529,23.8923075 65.200783,19.8822166 65.200783,15.5546315 C65.200783,7.69147153 74.7124222,1.2941343 86.4036582,1.2941343 C97.5765137,1.2941343 105.379895,7.15742544 105.379895,15.5546315 C105.379895,23.8983468 97.5765137,29.7262649 86.4036582,29.7262649 L86.4036582,29.7262649 Z" id="Fill-157" stroke-width="2" fill="#00BCD4" sketch:type="MSShapeGroup"></path>
            </g>
        </g>
    </g>
</svg>