<?xml version="1.0" encoding="UTF-8" standalone="no"?>
<svg width="128px" height="128px" viewBox="0 0 128 128" version="1.1" xmlns="http://www.w3.org/2000/svg" xmlns:xlink="http://www.w3.org/1999/xlink" xmlns:sketch="http://www.bohemiancoding.com/sketch/ns">
    <!-- Generator: Sketch 3.5.2 (25235) - http://www.bohemiancoding.com/sketch -->
    <title>Growth</title>
    <desc>Created with Sketch.</desc>
    <defs></defs>
    <g id="Page-2" stroke="none" stroke-width="1" fill="none" fill-rule="evenodd" sketch:type="MSPage">
        <g id="Growth" sketch:type="MSArtboardGroup" stroke="#00BCD4">
            <g id="Group-2" sketch:type="MSLayerGroup" transform="translate(11.000000, 8.000000)">
                <path d="M39.7930078,74.1360379 C38.8210963,74.1360379 38.0365413,74.5845033 38.0365413,75.1370767 L38.0365413,111.797788 C38.0365413,112.350361 38.8210963,112.798826 39.7930078,112.798826 C40.7602353,112.798826 41.5494742,112.350361 41.5494742,111.797788 L41.5494742,75.1370767 C41.5494742,74.5845033 40.7602353,74.1360379 39.7930078,74.1360379 L39.7930078,74.1360379 Z M22.0480131,80.0568814 L22.0480131,111.686869 C22.0480131,112.30067 22.8367262,112.798826 23.8056497,112.798826 C24.7745732,112.798826 25.5609459,112.30067 25.5609459,111.686869 L25.5609459,80.0568814 C25.5609459,79.4430811 24.7745732,78.9449243 23.8056497,78.9449243 C22.8367262,78.9449243 22.0480131,79.4430811 22.0480131,80.0568814 Z M54.0250696,67.9314067 L54.0250696,111.25812 C54.0250696,112.10859 54.8119666,112.798826 55.781536,112.798826 C56.7511055,112.798826 57.5380024,112.10859 57.5380024,111.25812 L57.5380024,67.9314067 C57.5380024,67.0809368 56.7511055,66.3907004 55.781536,66.3907004 C54.8119666,66.3907004 54.0250696,67.0809368 54.0250696,67.9314067 Z M7.81360927,81.8813754 C6.84403981,81.8813754 6.05714286,82.472054 6.05714286,83.1998543 L6.05714286,111.480347 C6.05714286,112.208148 6.84403981,112.798826 7.81360927,112.798826 C8.78317873,112.798826 9.57007568,112.208148 9.57007568,111.480347 L9.57007568,83.1998543 C9.57007568,82.472054 8.78317873,81.8813754 7.81360927,81.8813754 L7.81360927,81.8813754 Z M101.992996,28.1550421 L101.992996,110.371463 C101.992996,111.711368 102.777551,112.798826 103.747121,112.798826 C104.71669,112.798826 105.505929,111.711368 105.505929,110.371463 L105.505929,28.1550421 C105.505929,26.8151374 104.71669,25.7276786 103.747121,25.7276786 C102.777551,25.7276786 101.992996,26.8151374 101.992996,28.1550421 Z M71.7700643,56.7090286 C70.8004948,56.7090286 70.0135979,57.7788612 70.0135979,59.0970479 L70.0135979,110.410807 C70.0135979,111.728994 70.8004948,112.798826 71.7700643,112.798826 C72.7396337,112.798826 73.5265307,111.728994 73.5265307,110.410807 L73.5265307,59.0970479 C73.5265307,57.7788612 72.7396337,56.7090286 71.7700643,56.7090286 L71.7700643,56.7090286 Z M87.7632764,45.0910223 C86.791365,45.0910223 86.0044681,46.0892594 86.0044681,47.31923 L86.0044681,110.570619 C86.0044681,111.800589 86.791365,112.798826 87.7632764,112.798826 C88.7328459,112.798826 89.5174009,111.800589 89.5174009,110.570619 L89.5174009,47.31923 C89.5174009,46.0892594 88.7328459,45.0910223 87.7632764,45.0910223 L87.7632764,45.0910223 Z" id="Fill-165" fill="#FFFFFF" sketch:type="MSShapeGroup"></path>
                <g id="Group" stroke-width="4" stroke-linecap="square" sketch:type="MSShapeGroup">
                    <path d="M0.335249864,71.0991462 C0.335249864,71.0991462 38.0867557,75.217441 70.125992,45.7302511 C102.165228,16.2430613 100.777343,0.258427406 100.777343,0.258427406 L104.431046,15.1942568" id="Line"></path>
                    <path d="M100.777915,0.899645448 L91.1827478,10.128162" id="Line"></path>
                </g>
            </g>
        </g>
    </g>
</svg>