<?xml version="1.0" encoding="UTF-8" standalone="no"?>
<svg width="128px" height="128px" viewBox="0 0 128 128" version="1.1" xmlns="http://www.w3.org/2000/svg" xmlns:xlink="http://www.w3.org/1999/xlink" xmlns:sketch="http://www.bohemiancoding.com/sketch/ns">
    <!-- Generator: Sketch 3.5.2 (25235) - http://www.bohemiancoding.com/sketch -->
    <title>Modularity</title>
    <desc>Created with Sketch.</desc>
    <defs></defs>
    <g id="Page-2" stroke="none" stroke-width="1" fill="none" fill-rule="evenodd" sketch:type="MSPage">
        <g id="Modularity" sketch:type="MSArtboardGroup">
            <g sketch:type="MSLayerGroup" transform="translate(30.000000, 5.000000)">
                <path d="M34.1845714,11.7859583 C35.75925,11.7859583 37.0406786,10.4893542 37.0406786,8.89277083 C37.0406786,7.30858333 35.75925,6.0169375 34.1845714,6.0169375 C32.6074286,6.0169375 31.3235357,7.30858333 31.3235357,8.89277083 C31.3235357,10.4893542 32.6074286,11.7859583 34.1845714,11.7859583 L34.1845714,11.7859583 Z M34.0810714,110.055167 C37.0554643,110.055167 39.4753929,107.620625 39.4753929,104.625792 C39.4753929,101.645833 37.0554643,99.2261667 34.0810714,99.2261667 C31.1214643,99.2261667 28.7113929,101.645833 28.7113929,104.625792 C28.7113929,107.620625 31.1214643,110.055167 34.0810714,110.055167 L34.0810714,110.055167 Z M1.84821429,0 C0.828,0 0,0.833 0,1.859375 L0,114.713521 C0,115.739896 0.828,116.572896 1.84821429,116.572896 L66.5184643,116.572896 C67.5386786,116.572896 68.3666786,115.739896 68.3666786,114.713521 L68.3666786,1.859375 C68.3666786,0.833 67.5386786,0 66.5184643,0 L1.84821429,0 Z M3.69642857,97.19325 L64.67025,97.19325 L64.67025,112.854146 L3.69642857,112.854146 L3.69642857,97.19325 Z M3.69642857,17.6219167 L64.67025,17.6219167 L64.67025,93.4745 L3.69642857,93.4745 L3.69642857,17.6219167 Z M3.69642857,3.71875 L64.67025,3.71875 L64.67025,13.9006875 L3.69642857,13.9006875 L3.69642857,3.71875 Z" id="Fill-207" stroke="#00BCD4" sketch:type="MSShapeGroup"></path>
                <path d="M55.3644747,45.9161221 C54.8458512,45.9161221 54.4249394,46.3395756 54.4249394,46.8613309 L54.4249394,64.28342 C54.4249394,64.8051752 54.8458512,65.2286288 55.3644747,65.2286288 C55.8830982,65.2286288 56.30401,64.8051752 56.30401,64.28342 L56.30401,46.8613309 C56.30401,46.3395756 55.8830982,45.9161221 55.3644747,45.9161221 L55.3644747,45.9161221 Z M43.9935921,63.278978 C36.9996914,63.278978 31.3086129,69.0031627 31.3086129,76.0392972 C31.3086129,83.0766919 36.9996914,88.8021368 43.9935921,88.8021368 C50.9887456,88.8021368 56.6785714,83.0766919 56.6785714,76.0392972 C56.6785714,69.0031627 50.9887456,63.278978 43.9935921,63.278978 L43.9935921,63.278978 Z M43.9935921,86.9117192 C38.0356856,86.9117192 33.1876835,82.0344417 33.1876835,76.0392972 C33.1876835,70.0454129 38.0356856,65.1693957 43.9935921,65.1693957 C49.9527514,65.1693957 54.7995008,70.0454129 54.7995008,76.0392972 C54.7995008,82.0344417 49.9527514,86.9117192 43.9935921,86.9117192 L43.9935921,86.9117192 Z M45.8463558,45.4649424 L55.389529,45.4649424 C55.9081525,45.4649424 56.3290643,45.0427491 56.3290643,44.5197336 C56.3290643,44.195842 56.1662115,43.9084985 55.9181742,43.738361 L42.5416969,30.0819839 C42.2748689,29.811024 41.8702424,29.7278456 41.5157244,29.8702571 C41.1637118,30.0177097 40.9332125,30.3617657 40.9332125,30.7461506 L40.9332125,40.5208701 C40.9332125,43.2481126 43.1379887,45.4649424 45.8463558,45.4649424 L45.8463558,45.4649424 Z M42.8122831,33.0524601 L53.1196117,43.5745248 L45.8463558,43.5745248 C44.1739829,43.5745248 42.8122831,42.2058624 42.8122831,40.5208701 L42.8122831,33.0524601 L42.8122831,33.0524601 Z M46.4263622,55.1829494 C45.9077387,55.1829494 45.4868269,55.606403 45.4868269,56.1281582 L45.4868269,59.7590204 C45.4868269,60.2807757 45.9077387,60.7042292 46.4263622,60.7042292 C46.9449857,60.7042292 47.3658975,60.2807757 47.3658975,59.7590204 L47.3658975,56.1281582 C47.3658975,55.606403 46.9449857,55.1829494 46.4263622,55.1829494 L46.4263622,55.1829494 Z M32.5663375,86.7277185 L15.0721901,86.7277185 C13.2332064,86.7277185 11.7362135,85.217905 11.7362135,83.3652957 L11.7399716,43.7030732 C11.7963437,41.8756694 13.2595134,40.4439931 15.0721901,40.4439931 L30.6146095,40.4439931 C31.1332329,40.4439931 31.5541448,40.0205396 31.5541448,39.4987843 C31.5541448,38.977029 31.1332329,38.5535755 30.6146095,38.5535755 L20.6818422,38.5535755 L20.6818422,34.9504395 C20.7382144,33.1217754 22.201384,31.6913594 24.0140608,31.6913594 L39.5539747,31.6913594 C40.0725982,31.6913594 40.49351,31.2679059 40.49351,30.7461506 C40.49351,30.2243953 40.0725982,29.8009418 39.5539747,29.8009418 L24.0140608,29.8009418 C21.1791696,29.8009418 18.8904616,32.0366757 18.8027716,34.9201928 L18.8027716,38.5535755 L15.0721901,38.5535755 C12.2385517,38.5535755 9.94984367,40.7893094 9.860901,43.6740868 L9.85714286,83.3652957 C9.85714286,86.2614155 12.1972121,88.6181362 15.0721901,88.6181362 L32.5663375,88.6181362 C33.0849609,88.6181362 33.5058728,88.1946826 33.5058728,87.6729274 C33.5058728,87.1511721 33.0849609,86.7277185 32.5663375,86.7277185 L32.5663375,86.7277185 Z M49.3840193,75.0940883 L44.9331274,75.0940883 L44.9331274,70.6150588 C44.9331274,70.0920432 44.5134683,69.66985 43.9935921,69.66985 C43.4749687,69.66985 43.0540568,70.0920432 43.0540568,70.6150588 L43.0540568,75.0940883 L38.6019122,75.0940883 C38.0832887,75.0940883 37.6623769,75.5175419 37.6623769,76.0392972 C37.6623769,76.5610524 38.0832887,76.984506 38.6019122,76.984506 L43.0540568,76.984506 L43.0540568,81.4622753 C43.0540568,81.9840305 43.4749687,82.4074841 43.9935921,82.4074841 C44.5134683,82.4074841 44.9331274,81.9840305 44.9331274,81.4622753 L44.9331274,76.984506 L49.3840193,76.984506 C49.9026428,76.984506 50.3235546,76.5610524 50.3235546,76.0392972 C50.3235546,75.5175419 49.9026428,75.0940883 49.3840193,75.0940883 L49.3840193,75.0940883 Z M46.9800617,52.4897344 L33.6035844,38.8358779 C33.3367564,38.5636577 32.9321299,38.4804793 32.5776119,38.6241511 C32.2255993,38.7703434 31.9951,39.1143994 31.9951,39.4987843 L31.9951,49.2735038 C31.9951,51.9982258 34.1998762,54.2163158 36.9082433,54.2163158 L46.4263622,54.2163158 C46.4351312,54.2163158 46.4439002,54.2150556 46.4514165,54.2163158 C46.97004,54.2163158 47.3909518,53.7928623 47.3909518,53.271107 C47.3909518,52.9459552 47.228099,52.6586117 46.9800617,52.4897344 L46.9800617,52.4897344 Z M36.9082433,52.3258982 C35.2358704,52.3258982 33.8741706,50.9559755 33.8741706,49.2735038 L33.8741706,41.8038336 L44.1814992,52.3258982 L36.9082433,52.3258982 L36.9082433,52.3258982 Z" id="Fill-78" fill="#00BCD4" sketch:type="MSShapeGroup"></path>
            </g>
        </g>
    </g>
</svg>