<?xml version="1.0" encoding="UTF-8" standalone="no"?>
<svg width="602px" height="63px" viewBox="0 0 602 63" version="1.1" xmlns="http://www.w3.org/2000/svg" xmlns:xlink="http://www.w3.org/1999/xlink">
    <!-- Generator: Sketch 3.6.1 (26313) - http://www.bohemiancoding.com/sketch -->
    <title>Group 3</title>
    <desc>Created with Sketch.</desc>
    <defs>
        <linearGradient x1="-192.133734%" y1="50.000369%" x2="208.248496%" y2="50.000369%" id="linearGradient-1">
            <stop stop-color="#FF00A6" offset="0%"></stop>
            <stop stop-color="#00B4EC" offset="54.3%"></stop>
            <stop stop-color="#FFFA00" offset="100%"></stop>
        </linearGradient>
        <linearGradient x1="-147.054957%" y1="50.000369%" x2="273.183656%" y2="50.000369%" id="linearGradient-2">
            <stop stop-color="#FF00A6" offset="0%"></stop>
            <stop stop-color="#00B4EC" offset="54.3%"></stop>
            <stop stop-color="#FFFA00" offset="100%"></stop>
        </linearGradient>
    </defs>
    <g id="Page-1" stroke="none" stroke-width="1" fill="none" fill-rule="evenodd">
        <g id="Group-3" transform="translate(-3.000000, 0.000000)">
            <g id="append_1" transform="translate(247.000000, 0.000000)">
                <g id="Group" transform="translate(10.382033, 0.000000)" fill="#29ABE2">
                    <path d="M95.3193293,42.417875 L78.6995827,42.417875 L78.6995827,59.879125 L67.6200662,59.879125 L67.6200662,0.541375 C76.8534685,0.541375 86.085927,0.456546875 95.3202732,0.456546875 C124.02565,0.456546875 124.110593,42.417875 95.3193293,42.417875 L95.3193293,42.417875 Z M78.6995827,32.1603438 L95.3193293,32.1603438 C109.504017,32.1603438 109.420961,11.1391719 95.3193293,11.1391719 L78.6995827,11.1391719 L78.6995827,32.1603438 L78.6995827,32.1603438 Z" id="Shape"></path>
                    <path d="M152.053362,42.417875 L135.43456,42.417875 L135.43456,59.879125 L124.356931,59.879125 L124.356931,0.541375 C133.587502,0.541375 142.820904,0.456546875 152.054306,0.456546875 C180.76157,0.456546875 180.84557,42.417875 152.053362,42.417875 L152.053362,42.417875 Z M135.43456,32.1603438 L152.053362,32.1603438 C166.238994,32.1603438 166.154994,11.1391719 152.053362,11.1391719 L135.43456,11.1391719 L135.43456,32.1603438 L135.43456,32.1603438 Z" id="Shape"></path>
                    <path d="M224.906918,34.5802898 L191.919424,34.5802898 L191.919424,48.8590945 L224.906917,48.8590938 L224.906917,59.8800781 L180.922964,59.8800781 L180.922964,0.542328125 L224.906917,0.542328125 L224.906917,11.3927031 L191.919424,11.3927031 L191.919424,25.0395469 L224.906918,25.0395466" id="Shape"></path>
                    <path d="M273.837437,0.456546875 L284.916953,0.456546875 L284.916953,59.879125 L278.033666,59.879125 L278.033666,59.9639531 L247.144287,19.8697969 L247.144287,59.8800781 L236.064771,59.8800781 L236.064771,0.542328125 L245.047116,0.542328125 L273.837437,37.332 L273.837437,0.456546875 L273.837437,0.456546875 Z" id="Shape"></path>
                    <path d="M346.773104,29.7012813 C347.025104,44.7044219 337.959702,59.879125 317.393839,59.879125 L294.311749,59.879125 L294.311749,0.541375 L317.393839,0.541375 C337.539701,0.541375 346.52016,15.0374531 346.773104,29.7012813 L346.773104,29.7012813 Z M305.307265,49.1135781 L317.393839,49.1135781 C330.741358,49.1135781 336.028644,39.2801875 335.776644,29.6155 C335.524643,20.3778125 330.153357,11.1391719 317.393839,11.1391719 L305.307265,11.1391719 L305.307265,49.1135781 L305.307265,49.1135781 Z" id="Shape"></path>
                    <path d="M73.597779,33.6963438 C71.5232601,33.9079375 69.4987637,34.117625 67.529009,34.3292188 C59.8991588,35.147 53.0828825,35.9752656 47.1953262,36.7349062 L47.1953262,36.7349062 L47.1471913,36.7425312 C40.1270496,37.655625 34.4235384,38.2465625 30.3160287,38.8775312 L30.2584556,38.7421875 L30.2452421,38.7421875 L30.3169725,38.8479844 C26.6643847,39.4084219 24.2604722,39.9231094 23.2628533,40.095625 C22.9183586,40.1537656 22.7409202,40.2681406 22.7409202,40.2681406 L13.9029789,62.1080469 C14.335249,61.9088437 14.2021702,61.3712812 13.6226641,62.1890625 C13.5688662,62.2653125 13.8085968,62.1528437 13.9029789,62.1118594 L16.2644194,61.1291875 C15.4734973,61.4704062 14.6778561,61.8125781 13.9020351,62.1614219 L21.422402,59.0027656 C20.8193003,59.2410469 20.2331874,59.4888594 19.6395239,59.7271406 L21.4233459,58.9846562 L21.5196156,58.7702031 C21.5224471,58.7673437 21.5262224,58.7673437 21.5299976,58.7673437 L21.422402,59.0065781 C23.8272583,58.0687031 26.2991259,57.1737187 28.8191284,56.3120937 C38.2101488,53.3269062 47.9126302,50.7715781 48.5978444,50.5904844 C55.9823011,48.7900312 63.6867131,47.2412031 71.6431254,45.9173125 C73.6336442,45.5884844 75.6373765,45.2672812 77.6590414,44.9670469 C189.380095,28.2034844 344.99355,53.4069687 344.99355,53.4069687 C253.127663,22.1778281 138.431685,27.1626719 73.597779,33.6963438 L73.597779,33.6963438 Z" id="Shape" stroke="#FFFFFF"></path>
                </g>
                <g id="Group-2">
                    <path d="M74.5313004,60.9300732 L53.527967,60.9300732 L25.9587153,0.453036585 L46.9665224,0.453036585 L74.5313004,60.9300732 Z" id="Shape" fill="url(#linearGradient-1)"></path>
                    <path d="M21.6915395,60.9300732 L0.688206067,60.9300732 L25.9587153,0.453036585 L46.9665224,0.453036585 L21.6915395,60.9300732 Z" id="Shape" fill="url(#linearGradient-2)"></path>
                    <path d="M21.6915395,60.9300732 L25.9587153,0.453036585 L46.9665224,0.453036585 L21.6915395,60.9300732 Z" id="Shape" fill="#FFFFFF" opacity="0.1"></path>
                    <path d="M74.5313004,60.9300732 L25.9587153,0.453036585 L46.9665224,0.453036585 L74.5313004,60.9300732 Z" id="Shape" fill="#FFFFFF" opacity="0.1"></path>
                    <path d="M0.688206067,60.9300732 L46.9665224,0.453036585 L25.9587153,0.453036585 L0.688206067,60.9300732 Z" id="Shape" fill="#FFFFFF" opacity="0.1"></path>
                </g>
            </g>
            <text id="Hey,-we-are-" font-family="Roboto-Regular, Roboto" font-size="48" font-weight="normal" letter-spacing="-1.81242764" fill="#4A4A4A">
                <tspan x="0" y="49">Hey, we are </tspan>
            </text>
        </g>
    </g>
</svg>