<?xml version="1.0" encoding="UTF-8" standalone="no"?>
<svg width="128px" height="128px" viewBox="0 0 128 128" version="1.1" xmlns="http://www.w3.org/2000/svg" xmlns:xlink="http://www.w3.org/1999/xlink" xmlns:sketch="http://www.bohemiancoding.com/sketch/ns">
    <!-- Generator: Sketch 3.5.2 (25235) - http://www.bohemiancoding.com/sketch -->
    <title>Support</title>
    <desc>Created with Sketch.</desc>
    <defs></defs>
    <g id="Page-2" stroke="none" stroke-width="1" fill="none" fill-rule="evenodd" sketch:type="MSPage">
        <g id="Support" sketch:type="MSArtboardGroup">
            <g sketch:type="MSLayerGroup" transform="translate(28.000000, 6.000000)">
                <path d="M65.7311168,26.4584942 C65.5235056,26.0936418 65.0201603,25.6290136 63.8133266,25.6290136 C63.4638227,25.6290136 63.0605491,25.6751786 62.6423393,25.7466598 C62.0971731,10.9545046 47.6883547,0 34.7701552,0 C21.8594237,0 7.45956696,10.9396127 6.89946466,25.7183652 C6.53801197,25.6647542 6.19597617,25.6290136 5.90472297,25.6290136 C4.70386364,25.6290136 4.20350558,26.1070446 3.99888154,26.4406238 C2.68301453,28.4018912 1.6778176,30.7041837 1.00868205,33.2879338 C0.23499407,36.3095066 -0.0308678224,39.5112719 0.221551615,42.8023886 C0.466503022,46.097973 1.20882527,49.2252786 2.42910149,52.0949537 C3.46865136,54.5446764 4.80542885,56.6682658 6.40060021,58.4061542 C6.61119867,58.666763 6.93232399,58.8246174 7.2743598,58.8246174 C7.30423192,58.8246174 9.10402732,58.6920792 9.10402732,58.6920792 C9.92401709,58.6295331 10.5692549,58.2378753 10.9262268,57.6377305 C12.1435158,57.6079466 13.2263803,57.1462968 13.9836386,56.3302189 C14.8051219,55.4471274 15.199434,54.2066296 15.0963751,52.8380611 L14.4152907,43.8046156 C13.9388304,37.4800124 13.4504212,30.9960656 13.3503496,29.6304755 C13.159168,27.1196959 11.5430861,25.7645302 9.14584829,26.056412 C9.50132655,12.3871084 22.8213061,2.23378968 34.7701552,2.23378968 C46.7100427,2.23378968 60.0165797,12.3737056 60.3929685,26.025139 C58.0719046,25.8136735 56.5514135,27.1807528 56.3677,29.6319647 C56.2138585,31.7049215 55.1623598,45.6586611 54.6201808,52.8380611 C54.5186156,54.2081188 54.9144212,55.4501058 55.734411,56.3317081 C56.4931629,57.1462968 57.5730401,57.6079466 58.7903291,57.6377305 C59.0651526,58.0978912 59.5102473,58.4299812 60.0733368,58.5923033 C57.6058994,61.0747882 53.982411,64.1216773 49.7032294,65.5513027 C48.874278,63.9489309 47.2148815,62.8394821 45.2851424,62.8394821 C42.5354135,62.8394821 40.2979915,65.0702934 40.2979915,67.8118979 C40.2979915,70.5535024 42.5354135,72.7843137 45.2851424,72.7843137 C48.0363649,72.7843137 50.2737869,70.5535024 50.2737869,67.8118979 C57.1847025,65.4664187 62.4003751,59.4887976 64.4018074,57.186505 C64.5033726,57.0718371 64.5735721,56.9422773 64.6183803,56.8067607 C65.6474749,55.412876 66.5481194,53.8417772 67.288948,52.0949537 C68.506237,49.2312353 69.2485593,46.1039298 69.4964979,42.805367 C69.7489173,39.5053151 69.4845491,36.3035499 68.7063803,33.2864446 C68.0402319,30.7101405 67.0410094,28.4123155 65.7311168,26.4584942 Z M9.80900942,28.2261664 C10.2242319,28.2261664 10.9964263,28.2261664 11.1159148,29.7972651 C11.2159864,31.1583876 11.7043956,37.6453129 12.180856,43.9714052 L12.8604468,53.0048507 C12.9172038,53.7494473 12.7334902,54.3898003 12.3406718,54.8127312 C11.9792191,55.1999214 11.4445081,55.4069192 10.7947895,55.4069192 C10.6618585,55.4069192 10.5259404,55.3979841 10.4497664,55.3905381 C10.4169071,55.3845813 10.2481296,55.3607542 10.2137767,55.3577758 C9.91057463,55.3324596 9.56405801,55.4307463 9.33254906,55.6422117 C9.0995465,55.8536771 8.94122425,56.1500266 8.94122425,56.4642463 L7.74633934,56.5535979 C6.45735724,55.0673832 5.36403755,53.2773731 4.49177156,51.2237757 C3.36708614,48.5774796 2.68152092,45.6899341 2.4559864,42.635599 C2.22597105,39.6274289 2.47540328,36.5864966 3.17889177,33.8434028 C3.76289177,31.5887645 4.6232089,29.5798429 5.73893269,27.86876 C5.94505034,27.8494005 6.36624727,27.8776952 6.91440072,27.9804495 C7.1533777,28.431675 7.68062067,28.6714351 8.18994036,28.5359186 L8.90836491,28.3557262 C9.2444263,28.269353 9.54762834,28.2261664 9.80900942,28.2261664 L9.80900942,28.2261664 Z M45.2851424,70.550524 C43.7706258,70.550524 42.5384007,69.3219397 42.5384007,67.8118979 C42.5384007,66.3018561 43.7706258,65.0732718 45.2851424,65.0732718 C46.8011526,65.0732718 48.0333777,66.3018561 48.0333777,67.8118979 C48.0333777,69.3219397 46.8011526,70.550524 45.2851424,70.550524 L45.2851424,70.550524 Z M67.2620631,42.6370882 C67.035035,45.6958909 66.3479762,48.5834363 65.2277716,51.2237757 C64.354012,53.2788622 63.2606923,55.0718508 61.968723,56.5550871 L60.7230555,56.4702031 C60.7230555,56.1559834 60.5901245,55.8566555 60.3571219,55.6437009 C60.1510043,55.4560626 59.8821552,55.3533083 59.6043445,55.3533083 C59.5699915,55.3533083 59.534145,55.3547975 59.499792,55.359265 C59.4893368,55.359265 59.344457,55.3801137 59.3340017,55.3801137 C58.5035567,55.4798897 57.8120171,55.2803378 57.3773777,54.8127312 C56.9830657,54.3898003 56.7978585,53.7494473 56.8546156,53.0048507 C57.3982882,45.8254507 58.4497869,31.870222 58.6021347,29.7987543 C58.7216232,28.2261664 59.4938176,28.2261664 59.9075465,28.2261664 C60.1704212,28.2261664 60.4736232,28.269353 60.815659,28.3572154 L61.5310964,28.5359186 C62.0374289,28.6669676 62.5646718,28.4301858 62.8051424,27.9804495 C63.3114749,27.8821628 63.7670248,27.8508897 63.9806104,27.86876 C65.0948406,29.5768646 65.9521705,31.5872753 66.5361705,33.8434028 C67.2426462,36.582029 67.4935721,39.6229613 67.2620631,42.6370882 L67.2620631,42.6370882 Z" id="Fill-128" fill="#00BCD4" sketch:type="MSShapeGroup"></path>
                <path d="M35.3635624,63.8386667 C48.6176249,63.8386667 59.3988124,53.0893333 59.3988124,39.8812549 C59.3988124,26.670902 48.6176249,15.9215686 35.3635624,15.9215686 C22.1163436,15.9215686 11.3374374,26.670902 11.3374374,39.8812549 C11.3374374,53.0893333 22.1163436,63.8386667 35.3635624,63.8386667 L35.3635624,63.8386667 Z M35.3635624,19.3333333 C46.7310311,19.3333333 55.9769374,28.5519216 55.9769374,39.8812549 C55.9769374,51.2083137 46.7310311,60.426902 35.3635624,60.426902 C24.0029374,60.426902 14.7593124,51.2083137 14.7593124,39.8812549 C14.7593124,28.5519216 24.0029374,19.3333333 35.3635624,19.3333333 L35.3635624,19.3333333 Z M71.0742499,113.092609 C69.5640624,106.530649 64.2122499,87.0449231 60.2291874,81.8749624 C53.9876874,71.5077467 40.8750624,72.8133153 40.5032186,72.86108 L29.8109999,72.86108 C29.3684374,72.870178 18.7902811,72.5767663 12.5898436,81.4587271 C9.14515613,86.3966878 4.09674988,105.254649 2.32421863,113.099433 C2.11434363,114.018335 2.69378113,114.930413 3.61540613,115.137394 C4.53931238,115.351198 5.45409363,114.768923 5.65940613,113.850021 C7.52546863,105.609472 12.4529686,87.6317467 15.4003436,83.4057075 C20.5080624,76.0863349 29.6125311,76.2773937 29.7516874,76.2728447 L40.6857186,76.2637467 C40.8043436,76.2432761 52.2607811,75.1537859 57.3411249,83.7082173 C57.3821874,83.774178 57.4255311,83.8401388 57.4734374,83.8992761 C60.5919061,87.82508 65.8136874,105.486649 67.7390624,113.856845 C67.9192811,114.6461 68.6264686,115.180609 69.4043749,115.180609 C69.5321249,115.180609 69.6598749,115.166962 69.7876249,115.137394 C70.7092499,114.928139 71.2864061,114.011511 71.0742499,113.092609 L71.0742499,113.092609 Z" id="Fill-91" stroke="#00BCD4" sketch:type="MSShapeGroup"></path>
            </g>
        </g>
    </g>
</svg>